<?xml version="1.0" standalone="no"?>
<!DOCTYPE svg PUBLIC "-//W3C//DTD SVG 20010904//EN"
 "http://www.w3.org/TR/2001/REC-SVG-20010904/DTD/svg10.dtd">
<svg version="1.0" xmlns="http://www.w3.org/2000/svg"
 width="512.000000pt" height="512.000000pt" viewBox="0 0 512.000000 512.000000"
 preserveAspectRatio="xMidYMid meet">

<g transform="translate(0.000000,512.000000) scale(0.100000,-0.100000)"
fill="#000000" stroke="none">
<path d="M1830 4850 c-1202 -5 -1288 -6 -1330 -23 -116 -46 -192 -116 -243
-225 l-32 -67 -3 -1985 c-2 -1813 -1 -1989 14 -2035 43 -131 141 -231 272
-276 53 -18 97 -19 944 -19 l888 0 0 850 0 850 -210 0 -210 0 0 320 0 320 209
0 209 0 5 278 c4 242 7 287 26 357 78 289 287 512 571 608 l95 32 403 3 402 3
0 -320 0 -320 -347 -3 -348 -3 -45 -25 c-24 -14 -58 -45 -75 -68 l-30 -44 -3
-249 -3 -249 425 0 c234 0 426 -3 426 -7 0 -5 -23 -149 -51 -320 l-52 -313
-374 0 -373 0 0 -850 0 -850 803 2 802 3 66 32 c84 42 160 118 202 202 l32 66
0 2015 0 2015 -27 58 c-54 116 -182 212 -314 236 -60 11 -145 11 -2724 1z"/>
</g>
</svg>
